<?xml version="1.0" encoding="utf-8"?>
<!-- Generator: Adobe Illustrator 19.2.1, SVG Export Plug-In . SVG Version: 6.00 Build 0)  -->
<svg version="1.1" id="Calque_1" xmlns="http://www.w3.org/2000/svg" xmlns:xlink="http://www.w3.org/1999/xlink" x="0px" y="0px"
	 width="328.8px" height="296.8px" viewBox="0 0 328.8 296.8" style="enable-background:new 0 0 328.8 296.8;" xml:space="preserve"
	>
<style type="text/css">
	.st0{display:none;fill:#FFFFFF;}
	.st1{fill:#010101;}
	.st2{fill:#FFFFFF;}
	.st3{fill:#75C044;}
</style>
<g>
	<title>Calque 1</title>
	<g id="svg_2_1_" transform="matrix(2.05228, 0, 0, 2.05228, 0, 0)">
		<path class="st0" d="M0,95.2c0-26.9,0-53.8,0-80.7c26.7,0,53.4,0,80,0c-0.1,0.1-0.2,0.2-0.3,0.3c-4.5,4.6-9.1,9.2-13.6,13.7
			c-0.1,0.1-0.2,0.2-0.3,0.3c1.1,1.1,2.2,2.2,3.3,3.3c1.3-1.3,2.6-2.6,4-4c1.3-1.3,2.6-2.7,4-4c0,0,0.1,0,0.1,0.1
			c-1.7,3.6-3.4,7.3-5.1,10.9c0.7,0.8,1.5,1.5,2.2,2.2c1.2-0.6,2.4-1.1,3.6-1.7c1.2-0.6,2.4-1.2,3.6-1.7c1.2-0.6,2.4-1.2,3.6-1.7
			c0,0,0,0.1,0.1,0.1c-2.7,2.7-5.3,5.4-7.9,8c1.1,1.1,2.2,2.2,3.3,3.3c4.7-4.8,9.5-9.6,14.2-14.4c-1.6-1.6-3.1-3.1-4.6-4.6
			c-3.5,1.7-7,3.5-10.6,5.2l-0.1-0.1c1.8-3.5,3.5-7.1,5.3-10.6c-0.2-0.2-0.3-0.3-0.4-0.4c-1.3-1.3-2.6-2.6-3.9-3.9
			c-0.1-0.1-0.2-0.3-0.3-0.4c26.6,0,53.3,0,79.9,0c0,47.9,0,95.8,0,143.7c-40.9,0-81.8,0-122.6,0c0.4-0.3,0.7-0.6,0.9-1.1
			c0.1-0.4,0.3-0.7,0.5-1c0.9-2.1,1.4-4.3,1.9-6.5c0.3-1.2,0.5-2.5,0.7-3.7c0-0.1,0.1-0.3,0.2-0.4c0.8-0.4,1.6-0.7,2.5-0.6
			c0.7,0.1,1.2,0.6,1.3,1.2c-0.6,0.4-1.2,0.9-1.8,1.3c-0.8,0.6-1.5,1.4-1.9,2.3c-0.2,0.5-0.4,1-0.4,1.5c0,1.2,0.9,1.8,2,1.3
			c0.4-0.2,0.8-0.5,1.1-0.8c1.5-1.4,2.3-3.1,2.4-5.1c0-0.2,0-0.4,0.2-0.5c0.8-0.7,1.6-1.4,2.2-2.3c0.4,0.3,0.8,0.5,1.3,0.8
			c-0.1,0.2-0.2,0.3-0.2,0.5c-0.4,0.7-0.7,1.3-1.1,2c-0.4,0.9-0.6,1.9-0.4,2.8c0.2,0.8,0.7,1.2,1.5,1.2c0.2,0,0.4,0,0.6-0.1
			c0.7-0.2,1.3-0.6,1.7-1.1c0.6-0.6,1.1-1.3,1.6-1.9c0.1-0.1,0.2-0.3,0.4-0.5c0,0.2,0,0.3,0.1,0.4c0.1,0.4,0.2,0.9,0.3,1.3
			c0.3,0.8,1,1.1,1.8,1s1.4-0.5,2-1.1c0.9-0.8,1.6-1.8,2.2-2.8c0.5-0.7,1-1.5,1.5-2.2c0.2-0.3,0.5-0.6,0.7-0.9
			c0.1-0.1,0.3-0.3,0.6-0.2c0,0.2,0,0.4,0,0.5c0,0.5-0.1,1-0.2,1.4c-0.2,0.8-0.5,1.7-0.7,2.5c-0.1,0.4,0,0.7,0.5,0.8
			c0.3,0.1,0.5,0,0.7-0.2c0.1-0.1,0.2-0.3,0.3-0.4c1.1-1.6,2.2-3.2,3.3-4.8c0.3-0.4,0.6-0.8,1-1.2c0.1-0.1,0.3-0.2,0.5-0.3
			c0.1,0.4,0,0.6-0.1,0.9c-0.2,0.7-0.5,1.4-0.6,2.1c-0.1,0.5-0.2,1-0.2,1.5c0,0.9,0.8,1.5,1.7,1.1c0.3-0.1,0.6-0.3,0.9-0.5
			c0.4-0.4,0.9-0.8,1.2-1.3c0.5-0.7,0.9-1.4,1.3-2.1c0.4-0.6,0.8-1.3,1.2-1.9c0.2-0.2,0.3-0.5,0.7-0.5c0.2,0.4,0.2,0.8,0.1,1.1
			c-0.1,1.3-0.4,2.6-0.9,3.9c-0.1,0.4-0.1,0.6,0.2,0.8s0.6,0.2,0.8,0c0.1-0.1,0.2-0.3,0.3-0.4c0.9-1.6,2-3.2,3.1-4.7
			c0.4-0.6,0.9-1.2,1.4-1.7c0.1-0.1,0.3-0.3,0.5-0.4c0,0,0.1,0,0.1,0.1c0,0.2,0,0.4,0,0.5c-0.1,0.4-0.2,0.9-0.3,1.3
			c-0.2,0.9-0.4,1.8-0.5,2.7c0,0.4,0,0.9,0.2,1.3c0.2,0.6,0.8,0.9,1.4,0.7c0.4-0.1,0.8-0.4,1.1-0.6c0.7-0.6,1.3-1.3,1.9-2.1
			c0.1-0.2,0.2-0.3,0.4-0.5c0.1,0.3,0.2,0.6,0.3,0.8c0.4,1,1.2,1.4,2.2,1.2c0.6-0.1,1.1-0.3,1.5-0.7c0.6-0.5,1.1-1.1,1.6-1.7
			c0.6-0.8,1.1-1.6,1.7-2.4c0.3-0.4,0.6-0.7,0.9-1.1c0.1-0.1,0.3-0.3,0.6-0.2c0,0.3,0,0.5,0,0.8c-0.2,1.1-0.5,2.2-1,3.3
			c-0.2,0.4,0,0.6,0.3,0.8c0.4,0.1,0.7,0,1-0.5c1-1.4,2-2.7,3-4.1c0.4-0.5,0.9-1,1.3-1.5c0.1-0.1,0.3-0.2,0.5-0.4
			c0.2,0.4,0,0.6-0.1,0.9c-0.2,0.8-0.4,1.6-0.6,2.4c-0.1,0.6-0.2,1.1,0,1.7c0.2,0.6,0.9,1.3,1.8,0.9c0.5-0.2,0.9-0.5,1.3-0.8
			c0.9-0.7,1.6-1.5,2.2-2.4c0.1-0.1,0.2-0.2,0.3-0.3c0.1,0.2,0.1,0.4,0.1,0.6c0,0.7,0.1,1.4,0.4,2.1c0.4,1,1.3,1.5,2.4,1.4
			c1.5-0.2,2.6-1,3.4-2.2c0.1-0.2,0.2-0.3,0.2-0.5c0.1-0.4-0.2-0.7-0.6-0.5c-0.2,0.1-0.3,0.2-0.4,0.3s-0.2,0.3-0.4,0.5
			c-0.5,0.6-1,1.1-1.8,1.3c-0.7,0.2-1.2,0-1.5-0.7c-0.1-0.2-0.1-0.3-0.2-0.5c-0.2-0.6-0.2-1.3-0.2-2c0.1-1.5,0.5-3,1.1-4.4
			c0.1-0.2,0.2-0.4,0.5-0.4c1.1-0.4,2.2-0.7,3.4-0.9c0.2,0,0.3-0.1,0.5-0.1c0.2-0.1,0.4-0.2,0.3-0.4c-0.1-0.1-0.3-0.3-0.4-0.3
			c-0.4,0-0.8,0-1.2,0.1c-0.7,0.1-1.4,0.3-2.2,0.4c0.1-0.2,0.1-0.3,0.2-0.4c0.3-0.6,0.7-1.2,1-1.8c0.1-0.1,0.2-0.3,0.2-0.5
			c0.1-0.3,0-0.5-0.4-0.6c-0.4,0-0.7,0.2-0.9,0.5c-0.6,1-1.2,2-1.8,3.1c-0.1,0.2-0.3,0.4-0.5,0.5c-0.5,0.2-0.9,0.4-1.4,0.7
			c-0.2,0.1-0.3,0.2-0.4,0.3s-0.1,0.3-0.1,0.5c0.1,0.2,0.3,0.3,0.5,0.2c0.2,0,0.4-0.1,0.6-0.2c0.2-0.1,0.4-0.1,0.6-0.3
			c-0.2,0.5-0.3,0.9-0.5,1.3c-0.6,1.3-1.4,2.6-2.3,3.7c-0.3,0.4-0.7,0.8-1,1.1c-0.2,0.2-0.5,0.4-0.8,0.5c-0.4,0.2-0.6,0.1-0.6-0.4
			s0.1-0.9,0.2-1.3c0.2-1,0.5-2,0.8-3c0.1-0.4,0.2-0.8,0.1-1.2c0-0.7-0.5-0.9-1.1-0.7c-0.2,0.1-0.4,0.2-0.6,0.3
			c-0.4,0.3-0.7,0.5-1,0.8c-1.1,0.9-1.9,2.1-2.7,3.2c-0.1,0.1-0.2,0.2-0.3,0.3c0-0.2,0-0.3,0-0.4c0.1-0.5,0.2-1.1,0-1.6
			c-0.1-0.5-0.5-0.8-1-0.8c-0.3,0-0.6,0.1-0.8,0.2c-0.3,0.2-0.7,0.5-0.9,0.8c-0.6,0.7-1.2,1.5-1.8,2.2c-0.6,0.8-1.3,1.6-2,2.4
			c-0.3,0.3-0.6,0.5-1,0.7s-0.8,0.1-1-0.3c-0.2-0.3-0.3-0.7-0.3-1.1c0.2-0.1,0.4-0.2,0.6-0.3c1.4-0.7,2.6-1.7,3.2-3.2
			c0.2-0.4,0.3-0.9,0.3-1.3c0-0.7-0.4-1.1-1.1-1.2c-0.4-0.1-0.8,0-1.1,0.2s-0.7,0.4-0.9,0.7c-0.6,0.6-1,1.2-1.4,1.9
			c-0.2,0.5-0.4,1-0.7,1.5c-0.6,1.2-1.4,2.3-2.3,3.2c-0.2,0.3-0.5,0.5-0.8,0.7c-0.2,0.1-0.4,0.2-0.6,0.2c-0.2-0.1-0.2-0.4-0.2-0.6
			c0.1-0.7,0.2-1.4,0.4-2c0.2-1,0.5-2,0.7-2.9c0.1-0.3,0-0.7-0.1-1.1c-0.1-0.4-0.4-0.5-0.7-0.5c-0.2,0-0.4,0.1-0.6,0.2
			c-0.4,0.3-0.8,0.5-1.1,0.9c-1.2,1.1-2.1,2.4-2.9,3.7c-0.1,0.1-0.2,0.3-0.3,0.4c0-0.3,0-0.5,0-0.7c0.1-0.6,0.1-1.2,0-1.8
			c-0.2-0.8-0.9-1.1-1.7-0.7c-0.2,0.1-0.4,0.3-0.6,0.5c-0.4,0.4-0.8,0.9-1.1,1.4c-0.5,0.9-1,1.8-1.5,2.6c-0.4,0.6-0.9,1.2-1.4,1.8
			c-0.1,0.1-0.3,0.2-0.4,0.3c-0.3,0.1-0.4,0.1-0.4-0.3c0-0.2,0-0.4,0.1-0.6c0.3-0.9,0.6-1.8,0.8-2.7c0.1-0.5,0.3-1,0.3-1.5
			c0.1-0.4,0-0.8-0.3-1.1c-0.4-0.2-0.8-0.1-1.2,0.2c-0.5,0.4-1,0.8-1.5,1.3c-0.8,1-1.6,2-2.4,3c-0.1,0.1-0.2,0.2-0.3,0.3
			c0-0.2,0-0.3,0-0.4c0.1-0.6,0.2-1.2,0-1.8c-0.2-0.7-0.9-1.1-1.6-0.7c-0.3,0.1-0.5,0.3-0.7,0.6c-0.5,0.6-1,1.1-1.5,1.7
			c-0.7,0.9-1.3,1.9-2,2.8c-0.5,0.6-1,1.2-1.5,1.7c-0.2,0.2-0.5,0.4-0.8,0.5c-0.4,0.2-0.7,0-0.9-0.3c-0.1-0.2-0.2-0.5-0.2-0.8
			c-0.1-0.6-0.1-0.6,0.4-0.8c1.3-0.7,2.3-1.8,3.1-3.1c0.4-0.7,0.7-1.5,0.7-2.3S59.7,140,59,140c-0.3,0-0.6,0.1-0.8,0.2
			c-0.3,0.2-0.7,0.4-1,0.7c-0.8,0.7-1.3,1.6-1.7,2.5c-0.1,0.3-0.2,0.6-0.3,0.8c-0.8,1.4-1.6,2.8-2.8,4c-0.3,0.3-0.6,0.6-0.9,0.8
			c-0.2,0.2-0.5,0.4-0.8,0.2s-0.3-0.5-0.3-0.8c0-0.1,0-0.2,0-0.3c0.1-0.4,0.2-0.8,0.3-1.1c0.4-0.8,0.8-1.6,1.2-2.4
			c0.1-0.2,0.2-0.4,0.3-0.6c0.2-0.5,0.1-0.8-0.4-1.1c-0.3-0.2-0.7-0.4-1-0.6c-0.4-0.3-0.5-0.7-0.4-1.2c0.1-0.2,0.1-0.4,0.1-0.6
			c0-0.3-0.2-0.5-0.5-0.4c-0.2,0-0.4,0.1-0.5,0.2c-0.3,0.2-0.4,0.6-0.5,1c0,0.2,0,0.4-0.1,0.6c-0.5,1-1.3,1.7-2.1,2.4
			c-0.1,0-0.1-0.1-0.1-0.1l-0.1-0.1c-0.4-0.8-1.1-1.2-2-1.3c-0.7-0.1-1.4,0-2.1,0.2c-0.2,0.1-0.4,0.1-0.6,0.2c0-0.3,0-0.6,0-0.8
			c0-0.3,0-0.5,0-0.8s-0.1-0.6-0.2-0.8c-0.3-0.5-0.8-0.5-1.2-0.1c-0.1,0.2-0.2,0.4-0.2,0.7c0,0.7,0,1.5,0,2.2c0,0.4-0.2,0.5-0.5,0.7
			c-0.8,0.5-1.5,1-2.2,1.6c-0.4,0.3-0.8,0.8-1.2,1.2c-0.2,0.2-0.3,0.4-0.3,0.6c-0.1,0.4,0.2,0.6,0.6,0.4c0.2-0.1,0.4-0.3,0.6-0.4
			c0.7-0.7,1.5-1.4,2.3-1.9c0.1-0.1,0.3-0.2,0.4-0.3c0,0.1,0.1,0.1,0.1,0.1c0,0.1,0,0.1,0,0.2c-0.6,3.5-1.4,6.9-2.8,10.2
			c-0.1,0.2-0.2,0.4-0.2,0.6c-0.1,0.3,0,0.5,0.2,0.7c-12.3,0-24.7,0-37,0c0-20.9,0-41.9,0-62.8c0.2,0.1,0.4,0.3,0.5,0.4
			c4.5,4.5,9,9.1,13.5,13.6c0.1,0.1,0.2,0.2,0.4,0.4c3.2-3.3,6.5-6.5,9.6-9.7c-1.1-1.1-2.2-2.2-3.3-3.3c-2,2-4,4-6,6
			c-3.7-3.7-7.4-7.4-11.2-11.2c-0.1,0.1-0.2,0.3-0.3,0.4c-0.9,1-1.9,1.9-2.9,2.9C0.3,95.1,0.2,95.2,0,95.2z M145.8,109.8
			c0.1-0.1,0.2-0.2,0.3-0.3c2.1-2.1,4.2-4.2,6.3-6.3c2.5-2.5,4.9-5,7.4-7.5c0.4-0.4,0.4-0.4,0-0.8c-0.9-0.9-1.9-1.9-2.8-2.8
			c-0.1-0.1-0.2-0.1-0.3-0.2c-3.3,3.3-6.4,6.5-9.7,9.7c0-0.2,0.1-0.4,0.1-0.6c1.4-4.7,2.8-9.3,4.2-14c0.1-0.3,0.1-0.6-0.2-0.8
			c-1.4-1.4-2.8-2.9-4.3-4.3c-0.1-0.1-0.2-0.2-0.4-0.4c-4.8,4.8-9.5,9.6-14.2,14.4c1.1,1.1,2.2,2.2,3.3,3.3c1.6-1.6,3.2-3.2,4.8-4.8
			c1.6-1.6,3.2-3.2,4.8-4.8c0,0.2-0.1,0.4-0.1,0.6c-1.2,4.9-2.4,9.7-3.6,14.6c-0.1,0.3,0,0.5,0.2,0.7c0.9,0.9,1.9,1.9,2.8,2.8
			C144.9,108.9,145.3,109.3,145.8,109.8z M51.4,68.8c0.8-0.1,1.6-0.2,2.4-0.4c3.1-0.9,5.3-2.9,6.8-5.7c1.4-2.6,1.5-5.3,0.3-8
			c-1.2-3-3.4-5.1-6.3-6.4c-2.9-1.3-5.7-1.1-8.4,0.5c-1.8,1-3.2,2.4-4.3,4.2c-1.7,2.8-1.9,5.8-0.6,8.8c1.2,2.9,3.3,5,6.2,6.3
			C48.7,68.4,50,68.7,51.4,68.8z M111.8,46.6c-4.8,4.8-9.5,9.6-14.3,14.4c1.2,1.2,2.4,2.4,3.7,3.6c3.8-3.8,7.6-7.7,11.5-11.6
			c0.1,0.1,0.2,0.1,0.2,0.2c0.9,0.9,1.7,1.7,2.6,2.6c0.2,0.2,0.4,0.4,0.5,0.7c0.8,1.5,0.1,3.4-1.6,3.8c-1,0.2-1.8,0-2.5-0.7
			c-0.8-0.8-1.5-1.5-2.3-2.3c-0.1-0.1-0.2-0.2-0.3-0.2c0,0.1-0.1,0.1-0.1,0.1c-1,4.1-1.9,8.3-2.9,12.4c-0.1,0.3,0,0.4,0.2,0.6
			c1.1,1.1,2.2,2.2,3.3,3.3c0.1,0.1,0.2,0.2,0.3,0.3c0.9-3.3,1.8-6.5,2.7-9.7c0.1,0,0.2,0,0.2,0.1c2.1,0.9,4.1,0.5,5.9-0.7
			c2-1.4,2.8-3.7,2.2-6.1c-0.3-1.2-1-2.2-1.9-3.1c-2.4-2.4-4.7-4.8-7.1-7.2C112.1,46.9,111.9,46.7,111.8,46.6z M23.8,71.4
			c4.8,4.8,9.5,9.6,14.3,14.5c1.2-1.2,2.4-2.4,3.6-3.7c-3.9-3.9-7.7-7.8-11.6-11.7c0.9-0.9,1.8-1.9,2.7-2.6c1.4-1.1,3.5-0.4,4,1.3
			c0.3,1,0,1.9-0.7,2.6c-0.6,0.6-1.2,1.2-1.8,1.8c-0.1,0.1-0.2,0.2-0.4,0.4c0.2,0.1,0.3,0.1,0.4,0.2c3.8,1.1,7.7,2.2,11.5,3.3
			c0.3,0.1,0.5,0,0.7-0.2c1.1-1.1,2.2-2.2,3.3-3.3c0.1-0.1,0.1-0.2,0.3-0.3c-3.2-0.9-6.4-1.8-9.7-2.8c0.1-0.2,0.1-0.3,0.2-0.5
			c0.1-0.1,0.1-0.3,0.2-0.4c0.6-2.3,0-4.3-1.6-6c-1.3-1.5-3.1-1.9-5-1.6c-1.4,0.2-2.5,1-3.5,1.9c-2.3,2.3-4.5,4.6-6.8,6.8
			C24,71.1,24,71.2,23.8,71.4z M108.5,43.3c-0.4-0.5-10-10.2-10.3-10.4c-4.7,4.8-9.5,9.6-14.3,14.4c3.5,3.5,6.9,6.9,10.4,10.4
			c0.9-0.9,1.9-1.9,2.8-2.9c-2.3-2.3-4.5-4.5-6.7-6.7c0.5-0.6,2.8-2.9,3.2-3.1c1.8,1.8,3.6,3.6,5.3,5.4c1-1,1.9-1.9,2.9-2.9
			c-1.8-1.8-3.6-3.6-5.4-5.4c0.8-0.8,1.6-1.6,2.4-2.5c2.2,2.2,4.4,4.4,6.6,6.7C106.6,45.3,107.6,44.3,108.5,43.3z M11.9,83.5
			c4.8,4.8,9.5,9.6,14.3,14.5c3.3-3.3,6.6-6.6,9.8-9.9c-1-1-2-2-2.9-2.9c-2,2-4.1,4.1-6.2,6.2c-1.1-1.1-2.1-2.1-3.1-3.2
			c1.7-1.7,3.3-3.4,4.9-5c-1-1-2-2-3-3c-1.6,1.6-3.3,3.3-5,4.9c-0.5-0.4-2.1-2.1-2.3-2.4c2-2.1,4.1-4.1,6.1-6.2c-1-1-1.9-2-2.8-2.8
			C18.5,76.9,15.2,80.1,11.9,83.5z M73.4,50.2c-0.1-0.1-0.2-0.3-0.3-0.4c-1.6-1.7-3.3-3.3-4.9-5c-0.2-0.2-0.4-0.5-0.5-0.8
			c-1-3.8-1.9-7.6-2.9-11.5c-0.2-0.7-0.3-1.3-0.5-2.1c-0.2,0.2-0.3,0.3-0.4,0.4c-1.1,1.2-2.3,2.3-3.4,3.5c-0.3,0.3-0.4,0.5-0.2,0.9
			c0.8,2.4,1.6,4.7,2.3,7.1c0,0.2,0.1,0.3,0.1,0.5c-2.6-1-5.2-2-7.6-3c-1.4,1.4-2.7,2.7-4,4c0.1,0,0.3,0.1,0.5,0.2
			c4.1,1.3,8.1,2.6,12.2,3.9c0.3,0.1,0.6,0.3,0.8,0.5c1.6,1.6,3.2,3.3,4.8,4.9c0.1,0.1,0.3,0.3,0.4,0.3C71,52.6,72.2,51.4,73.4,50.2
			z M67,128.5c1.6-0.7,2.7-1.8,3.6-3.3c0.4-0.7,0.7-1.4,0.7-2.3c0-1.1-0.8-1.8-1.9-1.3c-0.4,0.2-0.8,0.4-1.1,0.7
			c-1.2,1.2-2.1,2.6-2.4,4.3c-0.1,0.4-0.1,0.8-0.2,1.2c-0.6,0.1-1,0-1.3-0.5c-0.1-0.2-0.2-0.5-0.4-0.7c-0.1-0.1-0.2-0.2-0.3-0.2
			s-0.3,0.1-0.3,0.2c-0.1,0.2-0.1,0.5-0.1,0.7c0.1,0.7,0.6,1.2,1.3,1.4c0.3,0.1,0.6,0.1,0.9,0.1c0.1,0.4,0.2,0.9,0.4,1.3
			c0.3,0.8,0.9,1.2,1.7,1.2c0.6,0,1.2-0.1,1.7-0.5s1.1-0.8,1.5-1.3c0.6-0.6,1.1-1.3,1.6-2c0.6-0.7,1.2-1.5,1.8-2.2
			c0.3-0.4,0.8-0.7,1.2-1c0.1-0.1,0.2-0.1,0.4-0.1c0.2,0.3,0.1,0.6,0.1,0.8c-0.1,0.3-0.1,0.7-0.2,1c-0.3,0.9-0.6,1.7-0.8,2.6
			c-0.1,0.4,0,0.7,0.3,0.8c0.2,0.1,0.4,0,0.6-0.4c0.9-1.6,2.1-3,3.4-4.3c0.4-0.4,0.8-0.8,1.2-1.1c0.1-0.1,0.3-0.2,0.6-0.3
			c0,0.3,0,0.5-0.1,0.7c-0.1,0.5-0.3,0.9-0.4,1.4c-0.2,0.6-0.3,1.2-0.2,1.8c0.1,0.7,0.6,1.2,1.3,1.2c0.3,0,0.7-0.1,1-0.2
			c0.5-0.2,0.9-0.6,1.3-0.9c0.8-0.7,1.3-1.5,1.9-2.3c0.1-0.1,0.2-0.2,0.3-0.4c0.1,0.2,0,0.4,0,0.5c0,0.6,0,1.3,0.2,1.9
			c0.3,0.7,0.7,1,1.4,0.7c0.4-0.1,0.9-0.3,1.2-0.6c0.5-0.5,1-1,1.5-1.5c0.8-1,1.4-2.1,1.9-3.3c0.1-0.2,0.2-0.3,0.3-0.5
			c0.4,0.3,0.9,0.4,1.3,0.3c0.4,0,0.9-0.1,1.3-0.1c-0.1,0.6-0.3,1.2-0.3,1.8c-0.1,0.7-0.1,1.3,0,2c0.2,0.7,0.6,1,1.3,1
			c0.6,0,1.1-0.2,1.5-0.6c0.5-0.5,1-1.1,1.5-1.6c0.1-0.1,0.2-0.3,0.4-0.5c0.1,0.3,0.1,0.5,0.2,0.7c0.4,1.2,1.3,1.8,2.5,1.6
			c0.7-0.1,1.4-0.5,1.9-1c0.8-0.6,1.4-1.4,1.9-2.2c0.7-1.1,1.3-2.2,1.9-3.3c0.1-0.2,0.2-0.3,0.3-0.6c0.3,1.1,0.6,2.1,0.8,3.1
			c0.1,0.4,0.1,0.9,0,1.3c0,0.3-0.2,0.7-0.4,1c-0.4,0.6-1.2,0.7-1.6,0.2l-0.1-0.1c-0.1-0.1-0.3-0.2-0.5-0.1s-0.2,0.3-0.2,0.5
			c0.1,0.5,0.6,1,1.1,1.1c0.9,0.1,1.7-0.2,2.2-1c0.6-0.8,0.8-1.8,0.6-2.8s-0.5-1.9-0.7-2.8c-0.3-1-0.5-2-0.1-3
			c0.1-0.3,0-0.5-0.2-0.7c-0.3-0.1-0.6-0.1-0.8,0.2c-0.1,0.1-0.2,0.3-0.2,0.5c-0.1,0.3-0.2,0.7-0.3,1c-0.8,2.1-1.9,4-3.3,5.8
			c-0.4,0.5-0.8,0.9-1.3,1.3c-0.3,0.3-0.6,0.5-1,0.6c-0.7,0.3-1.3,0-1.5-0.8c-0.1-0.4-0.1-0.7,0-1.1c0.2,0,0.3,0,0.5,0.1
			c0.5,0.1,1-0.1,1.4-0.4c1.1-1,1.6-2.3,1.5-3.8c0-0.6-0.4-0.9-1-1c-0.5-0.1-0.9,0-1.3,0.3s-0.7,0.6-1,1c-0.6,0.8-1,1.7-1.3,2.7
			c0,0.1-0.1,0.3-0.1,0.4c-0.7,1.1-1.4,2.2-2.5,3c-0.2,0.1-0.4,0.2-0.6,0.3c-0.2,0.1-0.4,0-0.5-0.2s-0.1-0.3-0.1-0.5
			c0-0.4,0.1-0.8,0.1-1.2c0.2-1,0.5-2.1,1-3c0.2-0.3,0.1-0.5-0.1-0.7s-0.5-0.2-0.8,0c-0.1,0.1-0.3,0.2-0.4,0.4
			c-0.6,0.8-1.5,0.9-2.4,0.8c-0.3,0-0.4-0.1-0.5-0.5s-0.4-0.6-0.8-0.4c-0.3,0.1-0.5,0.3-0.6,0.6c-0.3,0.6-0.5,1.2-0.8,1.8
			c-0.6,1.3-1.4,2.5-2.4,3.6c-0.2,0.2-0.4,0.4-0.7,0.5c-0.2,0.1-0.4,0-0.5-0.2s-0.1-0.4-0.1-0.7c0-1.3,0.2-2.6,0.6-3.9
			c0.1-0.2,0.1-0.3,0.1-0.5s0-0.5-0.3-0.6c-0.2-0.1-0.5-0.1-0.7,0.1c-0.1,0.1-0.2,0.1-0.2,0.2c-0.3,0.5-0.7,1.1-1,1.6
			c-0.7,1.2-1.4,2.3-2.3,3.3c-0.3,0.4-0.7,0.7-1.1,1c-0.2,0.2-0.5,0.4-0.8,0.2s-0.2-0.5-0.1-0.8c0.2-0.8,0.5-1.7,0.7-2.5
			c0.1-0.4,0.2-0.8,0.2-1.2c0.1-0.9-0.5-1.3-1.3-1c-0.2,0.1-0.4,0.1-0.5,0.3c-0.3,0.2-0.7,0.4-1,0.7c-1,0.8-1.8,1.8-2.6,2.8
			c-0.1,0.1-0.2,0.3-0.3,0.4c0-0.4,0.1-0.7,0.2-1c0.1-0.4,0.2-0.9,0.2-1.3c0-0.5-0.3-0.7-0.7-0.7s-0.8,0.1-1.2,0.3
			c-0.5,0.4-1,0.7-1.5,1.2c-0.9,1-1.8,2-2.7,3.1c-0.6,0.7-1.1,1.3-1.7,1.9c-0.2,0.2-0.5,0.4-0.8,0.6c-0.7,0.3-1.2,0.1-1.4-0.6
			C67.1,129.2,67.1,128.9,67,128.5z M122.6,86.2c1-1,2.1-2.1,3.2-3.2c-2-2-4-4-6-6.1c3.7-3.7,7.4-7.4,11.1-11.2
			c-1.2-1.2-2.4-2.5-3.6-3.7c-4.8,4.8-9.5,9.6-14.3,14.5C116.1,79.8,119.3,83,122.6,86.2z M139.4,74.6c-4.7,4.8-9.5,9.6-14.2,14.4
			c1.3,1.3,2.5,2.6,3.8,3.9c4.7-4.8,9.5-9.6,14.2-14.4C142,77.1,140.7,75.9,139.4,74.6z M41.1,127.4c0,0.2,0,0.3,0,0.5
			c-0.1,0.5-0.3,1-0.4,1.5c-0.3,0.9-0.6,1.7-0.8,2.6c-0.2,0.7-0.3,1.4-0.1,2.1c0.2,0.7,0.6,1,1.3,1c0.5,0,1-0.1,1.4-0.4
			c0.6-0.4,1-0.8,1.5-1.4c0.7-0.9,1.2-1.9,1.7-2.9c0.1-0.2,0.1-0.3,0.2-0.5c0.8,0.7,1.6,0.4,2.5,0.1c0,0.2,0,0.4-0.1,0.6
			c-0.1,0.6,0,1.1,0.2,1.7c0.3,0.7,0.7,1.1,1.5,1.2c0.6,0.1,1.2,0,1.6-0.3c0.4-0.3,0.8-0.6,1.1-0.9c0.9-1,1.4-2.1,1.7-3.3
			c0-0.1,0.1-0.3,0.1-0.4c1.3-0.2,2-1.2,2.5-2.2c0,0.1,0.1,0.1,0.1,0.1c0.2,0.8,0.4,1.7,0.6,2.5c0.1,0.5,0.1,0.9,0.1,1.4
			s-0.2,1.1-0.6,1.5c-0.4,0.5-0.9,0.5-1.4,0c-0.1-0.1-0.2-0.2-0.3-0.2c-0.3-0.2-0.6,0-0.6,0.3c0,0.1,0,0.3,0.1,0.4
			c0.3,0.6,0.9,1,1.7,0.9s1.4-0.6,1.7-1.2c0.4-0.8,0.6-1.7,0.4-2.5c-0.2-1.1-0.4-2.1-0.7-3.1c-0.2-0.9-0.3-1.8,0-2.7
			c0.1-0.4,0-0.6-0.3-0.7s-0.6,0-0.7,0.3c-0.1,0.2-0.1,0.4-0.2,0.6c-0.3,0.7-0.6,1.5-0.9,2.2c-0.1,0.3-0.4,0.6-0.6,0.9
			c-0.2,0.3-0.5,0.5-0.9,0.4c0-0.2-0.1-0.4-0.1-0.6c-0.1-0.3-0.3-0.6-0.6-0.7s-0.6,0-0.8-0.1c-0.3-0.1-0.5-0.3-0.9-0.2
			c-0.4,0.1-0.9,0.3-1.2,0.5c-0.6,0.3-0.9,0.8-1.4,1.3c-0.5,0.6-1,1.1-1.6,1.7c-0.3,0.3-0.7,0.4-1.1,0.2s-0.4-0.6-0.4-1
			c0-0.3,0.1-0.6,0.2-0.9c0.1-0.4-0.1-0.6-0.3-0.7c-0.3-0.1-0.6-0.1-0.8,0.2c-0.2,0.2-0.3,0.5-0.3,0.7c-0.1,0.3-0.1,0.7-0.3,1
			c-0.5,1.3-1.1,2.6-1.8,3.7c-0.3,0.5-0.7,0.9-1,1.3c-0.2,0.2-0.4,0.3-0.6,0.4c-0.3,0.1-0.5,0-0.5-0.3s0-0.6,0-0.8
			c0.1-0.4,0.1-0.7,0.2-1.1c0.3-1.1,0.7-2.1,1-3.2c0.1-0.3,0.2-0.6,0.2-0.9c0.1-0.9-0.5-1.4-1.4-1.2c-0.4,0.1-0.7,0.3-1,0.5
			c-0.9,0.6-1.5,1.3-2.1,2.2c-0.1,0.2-0.2,0.4-0.2,0.6c-0.1,0.3,0.2,0.5,0.5,0.4c0.2-0.1,0.3-0.3,0.5-0.4c0.6-0.6,1.1-1.2,1.7-1.8
			C40.5,127.6,40.7,127.4,41.1,127.4z M131.4,137.2c0,0.1,0.1,0.2,0.1,0.3c0.1,0.4,0.1,0.8,0.3,1.2c0.3,0.9,1,1.4,2,1.4
			c0.7,0,1.3-0.1,2-0.4c2.3-1,3.8-2.9,4.8-5.2c0.1-0.2,0.1-0.4,0.1-0.7c0-0.1-0.1-0.3-0.2-0.4c-0.1,0-0.3,0.1-0.3,0.1
			c-0.2,0.2-0.3,0.4-0.4,0.6c-0.6,1-1.2,2-2,2.8c-0.6,0.6-1.3,1.2-2.1,1.6c-0.4,0.2-0.8,0.3-1.2,0.3s-0.7-0.2-0.9-0.5
			c-0.3-0.6-0.3-1.2-0.2-1.8c1.1,0,1.9-0.5,2.7-1.3c0.9-1,1.5-2.2,1.8-3.5c0.1-0.4,0.1-0.7,0.1-1.1c0-0.6-0.4-1-1-1.1
			c-0.5-0.1-1,0-1.4,0.3c-0.5,0.3-0.9,0.7-1.3,1.2c-0.7,0.8-1.2,1.8-1.7,2.8c-0.6,1.3-1.4,2.5-2.3,3.5c-0.3,0.4-0.7,0.7-1,1
			c-0.2,0.2-0.4,0.3-0.7,0.4c-0.4,0.1-0.7,0-0.8-0.4c-0.1-0.3-0.1-0.7-0.1-1c0.2-0.8,0.4-1.7,0.6-2.5c0.3-1,0.7-1.9,1.3-2.7
			c0.3-0.4,0.1-0.8-0.4-0.9c-0.3,0-0.6,0.1-0.8,0.3c-0.1,0.1-0.2,0.2-0.2,0.3c-0.9,1.3-1.9,2.5-3,3.6c-0.6,0.6-1.3,1.2-2.1,1.6
			c-0.2,0.1-0.3,0.2-0.4,0.3s-0.1,0.4-0.1,0.5c0,0.2,0.3,0.3,0.5,0.2c0.3,0,0.5-0.1,0.7-0.2c1-0.4,1.8-1.1,2.5-1.9
			c0.1-0.1,0.2-0.2,0.3-0.3c-0.1,0.5-0.1,0.8-0.2,1.1c-0.1,0.6-0.1,1.2,0.1,1.9s0.6,1,1.3,1.2c0.8,0.1,1.5-0.2,2.1-0.6
			c0.6-0.5,1.1-1.1,1.6-1.7C131.2,137.5,131.3,137.3,131.4,137.2z M20.5,133.7c-0.8,0.1-1.1,0-1.4-0.7c-0.1-0.1-0.1-0.3-0.2-0.4
			c-0.1-0.3-0.4-0.3-0.5-0.1s-0.2,0.5-0.2,0.7c0.1,0.9,0.7,1.5,1.6,1.5c0.2,0,0.4,0,0.6,0c0.1,0.5,0.2,0.9,0.3,1.3
			c0.4,1.2,1.4,1.8,2.6,1.5c0.8-0.2,1.5-0.6,2.1-1.1c1.1-0.9,2-1.9,2.8-3c0.1-0.1,0.2-0.3,0.3-0.4h0.1c0,0.2,0,0.4,0,0.6
			c0,0.8,0.1,1.6,0.5,2.4s1.1,1.2,2,1.2c1.5,0,3.1-1,3.7-2.4c0-0.1,0.1-0.2,0.1-0.2c0-0.2,0-0.5-0.2-0.6s-0.5-0.1-0.7,0.1
			c-0.1,0.2-0.3,0.4-0.4,0.6c-0.3,0.5-0.7,0.9-1.2,1.2c-1.1,0.7-2,0.4-2.3-0.9c-0.2-0.7-0.2-1.5-0.2-2.2c0.1-1.6,0.6-3.1,1.2-4.6
			c0.1-0.2,0.3-0.4,0.5-0.5c1.1-0.4,2.1-0.7,3.3-0.8c0.2,0,0.4-0.1,0.6-0.3c0.2-0.2,0.2-0.5-0.1-0.5c-0.2-0.1-0.5-0.1-0.8-0.1
			c-0.8,0.1-1.5,0.3-2.3,0.4c-0.1,0-0.2,0-0.4,0c0.4-0.7,0.8-1.3,1.1-1.9c0.1-0.2,0.2-0.4,0.3-0.6c0.1-0.3,0-0.5-0.4-0.6
			c-0.4,0-0.7,0.1-1,0.5c-0.6,0.9-1.1,1.9-1.7,2.8c-0.2,0.3-0.3,0.5-0.6,0.6c-0.5,0.2-1,0.5-1.5,0.7c-0.2,0.1-0.3,0.2-0.4,0.3
			s-0.1,0.4-0.1,0.5c0.1,0.1,0.3,0.2,0.4,0.2c0.2,0,0.3-0.1,0.5-0.1c0.3-0.1,0.5-0.2,0.8-0.4c0,0.1,0,0.2,0,0.3
			c-1,2.9-2.8,5.3-5.2,7.2c-0.3,0.2-0.6,0.4-1,0.5c-0.6,0.2-1,0-1.2-0.5c-0.1-0.3-0.2-0.7-0.3-1.1c-0.1-0.3,0-0.6,0.4-0.7
			c1.3-0.7,2.3-1.7,3.1-3c0.4-0.7,0.6-1.4,0.6-2.1c0-0.9-0.8-1.4-1.6-1.2c-0.5,0.1-0.9,0.5-1.3,0.8c-1.1,1.1-1.9,2.5-2.2,4.1
			C20.7,132.9,20.6,133.3,20.5,133.7z M137.4,142.9c-2.8,0-6.2,0.2-9.5,0.7c-3.6,0.5-7.2,1.2-10.7,2.2c-3.1,0.8-6.2,1.8-9.2,3.1
			c-0.3,0.1-0.5,0.2-0.8,0.4s-0.4,0.6-0.3,0.9c0.1,0.3,0.5,0.5,0.9,0.4c0.1,0,0.3-0.1,0.4-0.2c1.3-0.5,2.7-1.1,4-1.6
			c4.2-1.5,8.4-2.6,12.8-3.3c2-0.3,4-0.6,6.1-0.8c1.6-0.2,3.1-0.2,4.7-0.3c2.5-0.1,5.1,0,7.6,0.3c0.7,0.1,1.5,0.2,2.2,0.3
			c0.3,0,0.6,0,0.8-0.3s0.1-0.5,0-0.8c-0.2-0.3-0.4-0.3-0.7-0.4C143,143.2,140.5,143,137.4,142.9z M117.6,138.4c0-0.1,0-0.2,0-0.2
			c0.3-2.5,0.3-5,0.4-7.4c0-1-0.1-1.9-0.5-2.8c-0.1-0.3-0.3-0.6-0.5-0.8c-0.2-0.2-0.4-0.3-0.7-0.3c-0.3,0.1-0.5,0.3-0.5,0.6
			c0,0.3-0.1,0.6,0.1,0.8c0.5,1,0.6,2.1,0.6,3.2c-0.1,1.8-0.1,3.6-0.3,5.4c-0.1,1.6-0.4,3.3-0.6,4.9c-0.1,0.5,0,0.6,0.5,0.8
			s0.7,0.1,1.1-0.3c0.1-0.2,0.2-0.3,0.3-0.5c0.6-0.9,1.1-1.9,1.6-2.8c1.7-2.9,3.5-5.8,5.6-8.4c0.8-1.1,1.8-2.1,2.7-3.1
			c0.7-0.7,1.5-1.4,2.5-1.7c0.1-0.1,0.3-0.1,0.4-0.3c0.4-0.3,0.3-0.8-0.2-1c-0.2-0.1-0.4-0.1-0.6,0c-0.4,0.1-0.8,0.3-1.2,0.5
			c-0.9,0.5-1.6,1.1-2.3,1.8c-1.2,1.2-2.3,2.4-3.3,3.8c-1.8,2.4-3.3,4.9-4.7,7.4C117.9,138.1,117.8,138.2,117.6,138.4z M144,134
			c0,0.4,0.2,0.7,0.5,0.8s0.6-0.1,0.7-0.4c0.1-0.2,0.2-0.4,0.2-0.6c0.6-3.4,1.7-6.5,3.3-9.5c0.1-0.2,0.2-0.3,0.2-0.5
			c0.1-0.5-0.1-0.7-0.6-0.6c-0.3,0.1-0.6,0.3-0.8,0.6c-0.3,0.4-0.6,0.9-0.8,1.4c-1.1,2-1.8,4.1-2.2,6.3
			C144.3,132.2,144.2,133.1,144,134z M143.4,138.1c0,0.5,0.2,0.8,0.5,0.9c0.4,0.1,0.6,0,0.9-0.3c0.4-0.4,0.6-1,0.5-1.6
			c-0.1-0.7-0.6-0.9-1.2-0.5C143.7,137.1,143.5,137.6,143.4,138.1z M129.9,128.6c0,0.7,0.4,1,1,0.7c0.6-0.4,1-1,1.1-1.7
			c0-0.6-0.4-0.9-1-0.6C130.3,127.4,130,128,129.9,128.6z M99.7,116.6c-0.1-0.1-0.1-0.4-0.3-0.5c-0.2-0.2-0.5-0.1-0.7,0.1
			c-0.5,0.4-0.8,0.9-0.9,1.5c0,0.3,0,0.5,0.3,0.6c0.2,0.1,0.5,0.1,0.7-0.1C99.3,117.8,99.6,117.3,99.7,116.6z M15.9,138.6
			c0.6,0,1.2-0.7,1.2-1.3c0-0.4-0.3-0.6-0.7-0.6c-0.6,0.1-1.1,0.7-1.1,1.3C15.3,138.4,15.5,138.6,15.9,138.6z M9.2,139
			c0-0.5-0.3-0.7-0.7-0.6c-0.5,0.1-1.1,0.7-1,1.3c0,0.4,0.3,0.7,0.7,0.6C8.7,140.1,9.2,139.5,9.2,139z M13.3,138.1
			c0-0.5-0.3-0.8-0.8-0.6c-0.5,0.1-0.9,0.7-1,1.2c0,0.5,0.3,0.8,0.8,0.7C12.8,139.2,13.3,138.6,13.3,138.1z"/>
		<path class="st1" d="M80.1,14.5c0.1,0.1,0.2,0.3,0.3,0.4c1.3,1.3,2.6,2.6,3.9,3.9c0.1,0.1,0.2,0.3,0.4,0.4
			c-1.8,3.5-3.5,7.1-5.3,10.6l0.1,0.1c3.5-1.7,7.1-3.5,10.6-5.2c1.5,1.5,3,3,4.6,4.6c-4.7,4.8-9.5,9.6-14.2,14.4
			c-1.1-1.1-2.2-2.2-3.3-3.3c2.6-2.7,5.3-5.3,7.9-8c0,0,0-0.1-0.1-0.1c-1.2,0.6-2.4,1.1-3.6,1.7s-2.4,1.2-3.6,1.7
			c-1.2,0.6-2.4,1.2-3.6,1.7c-0.8-0.8-1.5-1.5-2.2-2.2c1.7-3.6,3.4-7.2,5.1-10.9c0,0-0.1,0-0.1-0.1c-1.3,1.3-2.6,2.7-4,4
			c-1.3,1.3-2.7,2.7-4,4c-1.1-1.1-2.2-2.2-3.3-3.3c0.1-0.1,0.2-0.2,0.3-0.3c4.5-4.6,9.1-9.2,13.6-13.7
			C79.8,14.7,79.9,14.6,80.1,14.5C80.1,14.5,80.1,14.5,80.1,14.5z"/>
		<path class="st1" d="M0,95.2c0.2-0.1,0.3-0.2,0.4-0.3c1-1,1.9-1.9,2.9-2.9c0.1-0.1,0.2-0.3,0.3-0.4c3.8,3.8,7.4,7.4,11.2,11.2
			c2-2,4-4.1,6-6c1.1,1.1,2.2,2.1,3.3,3.3c-3.2,3.2-6.4,6.5-9.6,9.7c-0.2-0.2-0.3-0.3-0.4-0.4c-4.5-4.5-9-9.1-13.5-13.6
			c-0.2-0.2-0.4-0.3-0.6-0.4C0,95.3,0,95.3,0,95.2z"/>
		<path class="st1" d="M145.8,109.8c-0.5-0.5-0.9-0.9-1.3-1.4c-0.9-0.9-1.9-1.9-2.8-2.8c-0.2-0.2-0.3-0.4-0.2-0.7
			c1.2-4.8,2.4-9.7,3.6-14.6c0-0.2,0.1-0.4,0.1-0.6c-1.7,1.6-3.2,3.2-4.8,4.8c-1.6,1.6-3.2,3.2-4.8,4.8c-1.1-1.1-2.2-2.2-3.3-3.3
			c4.7-4.7,9.5-9.5,14.2-14.4c0.2,0.1,0.3,0.3,0.4,0.4c1.4,1.4,2.8,2.9,4.3,4.3c0.3,0.3,0.3,0.5,0.2,0.8c-1.4,4.7-2.8,9.3-4.2,14
			c-0.1,0.2-0.1,0.4-0.1,0.6c3.3-3.2,6.5-6.5,9.7-9.7c0.1,0.1,0.2,0.1,0.3,0.2c0.9,0.9,1.9,1.9,2.8,2.8c0.4,0.4,0.4,0.4,0,0.8
			c-2.5,2.5-4.9,5-7.4,7.5c-2.1,2.1-4.2,4.2-6.3,6.3C146,109.6,145.9,109.7,145.8,109.8z"/>
		<path class="st1" d="M51.4,68.8c-1.3-0.1-2.6-0.3-3.8-0.9c-2.8-1.3-4.9-3.4-6.2-6.3c-1.3-3-1.1-6,0.6-8.8c1.1-1.8,2.5-3.2,4.3-4.2
			c2.7-1.5,5.6-1.7,8.4-0.5c2.9,1.3,5,3.5,6.3,6.4c1.1,2.7,1,5.4-0.3,8c-1.5,2.8-3.7,4.8-6.8,5.7C53,68.6,52.2,68.6,51.4,68.8z
			 M49.5,52.1c-0.1,0-0.3,0-0.5,0c-0.1,0-0.3,0-0.4,0.1c-1.6,0.5-2.6,1.6-3.2,3.2c-0.1,0.2-0.1,0.4-0.1,0.7
			c-0.1,1.1,0.3,2.2,0.9,3.1c1,1.6,2.3,2.9,3.8,3.8c0.4,0.3,0.9,0.5,1.3,0.6c0.7,0.3,1.4,0.4,2.1,0.2c2.8-0.6,4.4-3.5,3.2-6.1
			c-1.1-2.4-2.9-4.1-5.2-5.3C50.8,52.2,50.2,52.1,49.5,52.1z"/>
		<path class="st1" d="M111.8,46.6c0.2,0.2,0.3,0.3,0.4,0.4c2.4,2.4,4.7,4.8,7.1,7.2c0.9,0.9,1.6,1.9,1.9,3.1
			c0.6,2.4-0.2,4.7-2.2,6.1c-1.8,1.3-3.8,1.6-5.9,0.7c-0.1,0-0.1,0-0.2-0.1c-0.9,3.2-1.8,6.5-2.7,9.7c-0.1-0.1-0.2-0.2-0.3-0.3
			c-1.1-1.1-2.2-2.2-3.3-3.3c-0.2-0.2-0.3-0.4-0.2-0.6c1-4.1,2-8.3,2.9-12.4c0,0,0-0.1,0.1-0.1c0.1,0.1,0.2,0.2,0.3,0.2
			c0.8,0.8,1.5,1.5,2.3,2.3c0.7,0.7,1.6,1,2.5,0.7c1.6-0.4,2.4-2.3,1.6-3.8c-0.1-0.2-0.3-0.5-0.5-0.7c-0.8-0.9-1.7-1.7-2.6-2.6
			c0,0-0.1-0.1-0.2-0.2c-3.8,3.9-7.7,7.8-11.5,11.6c-1.2-1.2-2.4-2.4-3.7-3.6C102.2,56.2,107,51.4,111.8,46.6z"/>
		<path class="st1" d="M23.8,71.4c0.1-0.2,0.2-0.3,0.3-0.4c2.3-2.3,4.5-4.6,6.8-6.8c1-1,2.1-1.7,3.5-1.9c1.9-0.3,3.7,0.1,5,1.6
			c1.5,1.7,2.1,3.7,1.6,6c0,0.1-0.1,0.3-0.2,0.4c-0.1,0.1-0.1,0.3-0.2,0.5c3.2,0.9,6.4,1.8,9.7,2.8c-0.1,0.1-0.2,0.2-0.3,0.3
			c-1.1,1.1-2.2,2.2-3.3,3.3c-0.2,0.2-0.4,0.3-0.7,0.2c-3.8-1.1-7.7-2.2-11.5-3.3c-0.1,0-0.3-0.1-0.4-0.2c0.1-0.2,0.3-0.3,0.4-0.4
			c0.6-0.6,1.2-1.2,1.8-1.8c0.7-0.7,0.9-1.6,0.7-2.6c-0.5-1.7-2.5-2.5-4-1.3c-1,0.8-1.8,1.7-2.7,2.6c3.9,3.9,7.7,7.8,11.6,11.7
			c-1.2,1.2-2.4,2.4-3.6,3.7C33.3,81,28.6,76.2,23.8,71.4z"/>
		<path class="st1" d="M108.5,43.3c-1,1-1.9,1.9-2.9,2.9c-2.2-2.2-4.4-4.5-6.6-6.7c-0.8,0.8-1.6,1.6-2.4,2.5
			c1.8,1.8,3.6,3.7,5.4,5.4c-1,1-1.9,1.9-2.9,2.9c-1.8-1.8-3.6-3.6-5.3-5.4c-0.4,0.2-2.7,2.5-3.2,3.1c2.2,2.2,4.4,4.4,6.7,6.7
			c-1,1-1.9,1.9-2.8,2.9c-3.5-3.4-6.9-6.9-10.4-10.4c4.8-4.8,9.5-9.6,14.3-14.4C98.5,33.2,108.1,42.8,108.5,43.3z"/>
		<path class="st1" d="M11.9,83.5c3.3-3.3,6.6-6.6,9.9-9.8c0.9,0.9,1.8,1.8,2.8,2.8c-2,2-4.1,4.1-6.1,6.2c0.2,0.3,1.9,2.1,2.3,2.4
			c1.7-1.7,3.3-3.3,5-4.9c1,1,2,2,3,3c-1.6,1.6-3.2,3.3-4.9,5c1,1.1,2,2.1,3.1,3.2c2.1-2.1,4.1-4.2,6.2-6.2c1,1,1.9,1.9,2.9,2.9
			c-3.2,3.3-6.5,6.6-9.8,9.9C21.4,93.1,16.7,88.3,11.9,83.5z"/>
		<path class="st1" d="M73.4,50.2c-1.2,1.2-2.4,2.4-3.6,3.6c-0.1-0.1-0.2-0.2-0.4-0.3c-1.6-1.6-3.2-3.2-4.8-4.9
			c-0.2-0.2-0.5-0.4-0.8-0.5c-4.1-1.3-8.1-2.6-12.2-3.9c-0.2-0.1-0.4-0.1-0.5-0.2c1.3-1.3,2.6-2.6,4-4c2.4,0.9,4.9,1.9,7.6,3
			c-0.1-0.2-0.1-0.4-0.1-0.5c-0.8-2.4-1.5-4.8-2.3-7.1c-0.1-0.4-0.1-0.6,0.2-0.9c1.2-1.1,2.3-2.3,3.4-3.5c0.1-0.1,0.2-0.2,0.4-0.4
			c0.2,0.7,0.4,1.4,0.5,2.1c1,3.8,1.9,7.6,2.9,11.5c0.1,0.3,0.2,0.6,0.5,0.8c1.6,1.6,3.3,3.3,4.9,5C73.1,49.9,73.3,50.1,73.4,50.2z"
			/>
		<path class="st1" d="M122.6,86.2c-3.2-3.2-6.5-6.4-9.8-9.7c4.8-4.8,9.5-9.6,14.3-14.5c1.2,1.2,2.4,2.4,3.6,3.7
			c-3.7,3.7-7.4,7.4-11.1,11.2c2,2.1,4.1,4.1,6,6.1C124.6,84.1,123.6,85.2,122.6,86.2z"/>
		<path class="st1" d="M139.4,74.6c1.3,1.3,2.6,2.5,3.8,3.8c-4.8,4.8-9.5,9.6-14.2,14.4c-1.3-1.3-2.5-2.5-3.8-3.9
			C129.9,84.2,134.7,79.4,139.4,74.6z"/>
		<path class="st2" d="M49.5,52.1c0.7,0,1.3,0.1,1.9,0.4c2.3,1.2,4.1,2.9,5.2,5.3c1.2,2.6-0.4,5.5-3.2,6.1c-0.7,0.1-1.5,0.1-2.1-0.2
			c-0.4-0.2-0.9-0.4-1.3-0.6c-1.6-1-2.8-2.3-3.8-3.8c-0.6-0.9-1-2-0.9-3.1c0-0.2,0-0.5,0.1-0.7c0.5-1.6,1.6-2.7,3.2-3.2
			c0.1,0,0.3-0.1,0.4-0.1C49.2,52.1,49.3,52.1,49.5,52.1z"/>
		<polygon class="st3" points="17.5,112.4 80,49 143.1,112.4 		"/>
	</g>
</g>
</svg>
