<?xml version="1.0" standalone="no"?>
<!DOCTYPE svg PUBLIC "-//W3C//DTD SVG 20010904//EN"
 "http://www.w3.org/TR/2001/REC-SVG-20010904/DTD/svg10.dtd">
<svg version="1.0" xmlns="http://www.w3.org/2000/svg"
 width="1744.000000pt" height="1744.000000pt" viewBox="0 0 1744.000000 1744.000000"
 preserveAspectRatio="xMidYMid meet">
<metadata>
Created by potrace 1.11, written by Peter Selinger 2001-2013
</metadata>
<g transform="translate(0.000000,1744.000000) scale(0.100000,-0.100000)"
fill="#000000" stroke="none">
<path d="M7205 16123 c-1399 -67 -2665 -478 -3805 -1236 -1352 -900 -2384
-2236 -2906 -3762 -608 -1777 -527 -3699 228 -5415 415 -943 1075 -1849 1843
-2531 776 -689 1638 -1189 2605 -1510 1001 -332 2041 -446 3100 -338 1337 135
2617 638 3700 1454 472 356 947 815 1316 1275 120 149 364 481 364 495 0 3
-779 5 -1731 5 l-1730 0 -112 -68 c-625 -383 -1327 -619 -2067 -697 -344 -36
-786 -30 -1140 16 -139 18 -440 72 -474 85 -7 3 -359 -245 -782 -550 l-769
-556 -3 879 -2 879 -127 89 c-257 178 -436 327 -661 547 -830 813 -1325 1838
-1459 3018 -25 217 -25 799 0 1016 134 1180 629 2205 1459 3018 402 394 812
683 1313 925 710 342 1470 506 2260 486 872 -22 1686 -258 2426 -703 l107 -64
1741 0 1742 0 -42 63 c-90 133 -300 407 -428 557 -1251 1472 -3010 2400 -4906
2590 -346 34 -765 47 -1060 33z"/>
<path d="M6186 12289 c-502 -53 -902 -336 -1006 -711 -20 -72 -20 -88 -20
-4131 l0 -4057 1184 890 1185 890 4248 3 4248 3 100 22 c432 95 737 321 858
635 l32 82 3 2794 c2 2776 2 2795 -18 2868 -95 346 -426 603 -900 700 -80 16
-381 17 -4960 19 -2681 1 -4911 -2 -4954 -7z m5262 -1679 c335 -30 575 -140
787 -362 44 -45 98 -110 120 -143 156 -236 224 -518 195 -815 -11 -117 -88
-646 -116 -800 -99 -538 -409 -965 -870 -1199 -238 -120 -473 -172 -778 -172
-388 1 -684 114 -918 354 -167 169 -274 380 -313 616 -29 169 -17 358 44 766
63 416 81 506 132 658 207 619 751 1042 1409 1096 150 12 182 12 308 1z
m-4038 -47 c0 -5 65 -568 145 -1253 81 -685 149 -1269 151 -1297 3 -29 9 -53
14 -53 5 0 16 21 26 48 10 26 255 612 545 1302 l527 1255 411 3 c390 2 411 1
403 -15 -5 -10 -368 -777 -808 -1705 l-799 -1688 -422 0 c-393 0 -422 1 -427
18 -5 16 -586 3375 -586 3387 0 3 185 5 410 5 226 0 410 -3 410 -7z m6705
-559 c105 -312 194 -567 200 -568 5 0 171 254 370 566 l360 567 454 0 c361 1
451 -2 444 -11 -66 -83 -1213 -1672 -1213 -1680 0 -9 731 -1601 777 -1690 l14
-28 -478 0 -478 0 -200 581 c-110 319 -205 581 -210 582 -6 0 -179 -261 -385
-581 l-375 -582 -454 0 c-432 0 -453 1 -439 18 8 9 293 396 632 859 l617 842
-357 833 c-196 458 -358 839 -361 846 -4 9 89 12 443 12 l449 0 190 -566z"/>
<path d="M11130 10010 c-210 -26 -392 -149 -523 -350 -119 -185 -149 -290
-223 -780 -50 -332 -57 -393 -57 -530 0 -127 3 -169 21 -231 53 -193 153 -310
318 -371 50 -18 81 -22 209 -22 139 -1 156 1 223 26 105 38 175 83 258 164 77
75 168 206 209 298 68 154 87 240 161 751 42 292 46 332 41 460 -4 115 -9 154
-30 220 -62 191 -176 307 -342 348 -80 20 -185 27 -265 17z"/>
</g>
</svg>
