<?xml version="1.0" standalone="no"?>
<!DOCTYPE svg PUBLIC "-//W3C//DTD SVG 20010904//EN"
 "http://www.w3.org/TR/2001/REC-SVG-20010904/DTD/svg10.dtd">
<svg version="1.0" xmlns="http://www.w3.org/2000/svg"
 width="1744.000000pt" height="1744.000000pt" viewBox="0 0 1744.000000 1744.000000"
 preserveAspectRatio="xMidYMid meet">
<metadata>
Created by potrace 1.11, written by Peter Selinger 2001-2013
</metadata>
<g transform="translate(0.000000,1744.000000) scale(0.100000,-0.100000)"
fill="#000000" stroke="none">
<path d="M7140 16113 c-36 -2 -150 -10 -255 -19 -3052 -250 -5650 -2383 -6500
-5335 -257 -893 -343 -1862 -250 -2794 193 -1924 1135 -3699 2620 -4940 1085
-906 2365 -1471 3760 -1660 547 -74 1178 -85 1735 -29 2017 200 3859 1222
5116 2837 92 119 274 372 274 381 0 3 -774 6 -1720 6 l-1721 0 -92 -58 c-370
-234 -841 -440 -1286 -562 -760 -209 -1586 -233 -2348 -69 l-92 20 -768 -555
c-422 -306 -771 -556 -775 -556 -5 0 -8 398 -8 885 l0 885 -42 27 c-847 550
-1546 1423 -1910 2387 -724 1917 -184 4092 1352 5450 702 620 1536 1020 2455
1175 805 136 1660 66 2430 -200 340 -117 712 -293 976 -461 l76 -48 1732 2
1732 3 -97 135 c-1239 1734 -3172 2855 -5284 3064 -318 32 -792 44 -1110 29z"/>
<path d="M6155 12283 c-231 -30 -473 -123 -635 -243 -91 -68 -211 -196 -260
-278 -21 -37 -51 -103 -67 -147 l-28 -80 -3 -4068 c-2 -3265 0 -4067 10 -4061
7 4 535 400 1174 879 638 480 1167 876 1175 881 8 5 1733 11 4279 14 l4265 5
105 27 c282 71 465 171 632 346 88 92 146 185 185 297 l28 80 0 2800 0 2800
-28 80 c-39 112 -97 205 -185 297 -167 174 -360 279 -647 350 l-90 23 -4940 1
c-2717 1 -4953 -1 -4970 -3z m5380 -1678 c273 -39 493 -145 676 -325 220 -217
331 -474 346 -800 7 -144 0 -213 -63 -635 -56 -373 -75 -468 -125 -617 -135
-406 -389 -711 -764 -921 -385 -215 -965 -257 -1353 -99 -204 84 -401 243
-520 422 -136 204 -194 402 -195 670 -1 173 -4 147 89 753 36 234 66 369 110
492 187 519 623 907 1159 1031 189 43 456 56 640 29z m-4120 -67 c15 -89 295
-2492 295 -2532 0 -25 3 -46 8 -46 4 0 18 31 32 68 14 38 259 625 545 1305
l520 1237 413 0 c226 0 412 -3 412 -7 -1 -5 -362 -771 -804 -1703 l-804 -1695
-431 -3 c-309 -1 -431 1 -431 9 0 6 -130 766 -290 1688 -159 923 -290 1685
-290 1694 0 16 35 17 410 17 l409 0 6 -32z m6702 -533 c103 -311 192 -565 198
-565 5 1 172 255 369 565 l359 565 454 0 c249 0 453 -2 453 -5 0 -3 -275 -383
-611 -845 l-611 -840 392 -847 c215 -467 394 -854 397 -860 4 -10 -95 -13
-476 -13 -265 0 -481 1 -481 3 0 6 -400 1161 -403 1164 -2 1 -169 -255 -372
-570 -202 -314 -373 -578 -379 -585 -9 -9 -111 -12 -465 -10 l-452 3 626 854
c464 633 625 860 622 875 -3 12 -161 386 -352 831 -191 446 -350 818 -352 828
-5 16 21 17 445 17 l450 0 189 -565z"/>
<path d="M11062 9995 c-270 -59 -511 -328 -597 -668 -20 -79 -61 -333 -121
-752 -19 -139 -19 -330 0 -426 21 -101 83 -223 145 -287 154 -156 465 -187
696 -70 148 76 308 261 385 444 55 132 80 247 137 623 50 332 56 394 56 526 0
120 -4 165 -21 226 -58 213 -185 345 -369 384 -84 18 -228 18 -311 0z"/>
</g>
</svg>
